<?xml version="1.0" encoding="UTF-8" standalone="no"?>
<svg
   xmlns:dc="http://purl.org/dc/elements/1.1/"
   xmlns:cc="http://creativecommons.org/ns#"
   xmlns:rdf="http://www.w3.org/1999/02/22-rdf-syntax-ns#"
   xmlns:svg="http://www.w3.org/2000/svg"
   xmlns="http://www.w3.org/2000/svg"
   viewBox="0 0 700 193.33333"
   height="193.33333"
   width="700"
   xml:space="preserve"
   id="svg2"
   version="1.1"><metadata
     id="metadata8"><rdf:RDF><cc:Work
         rdf:about=""><dc:format>image/svg+xml</dc:format><dc:type
           rdf:resource="http://purl.org/dc/dcmitype/StillImage" /></cc:Work></rdf:RDF></metadata><defs
     id="defs6" /><g
     transform="matrix(1.3333333,0,0,-1.3333333,0,193.33333)"
     id="g10"><g
       transform="scale(0.1)"
       id="g12"><path
         id="path14"
         style="fill:#ffffff;fill-opacity:1;fill-rule:nonzero;stroke:none"
         d="M 8.19141,726.715 V 1445.56 H 5244.31 V 7.86328 H 8.19141" /><path
         id="path16"
         style="fill:none;stroke:#000000;stroke-width:7.97010994;stroke-linecap:butt;stroke-linejoin:miter;stroke-miterlimit:10;stroke-dasharray:none;stroke-opacity:1"
         d="M 8.19141,726.715 V 1445.56 H 5244.31 V 7.86328 H 8.19141 Z" /><g
         transform="scale(10)"
         id="g18"><text
           id="text22"
           style="font-variant:normal;font-weight:normal;font-size:9.96263981px;font-family:CMR10;-inkscape-font-specification:CMR10;writing-mode:lr-tb;fill:#000000;fill-opacity:1;fill-rule:nonzero;stroke:none"
           transform="matrix(1,0,0,-1,91.4602,135.28)"><tspan
             id="tspan20"
             y="0"
             x="0 7.4399977 10.199649 15.239498 19.679501">Nivel</tspan></text>
<text
           id="text26"
           style="font-variant:normal;font-weight:normal;font-size:7.97010994px;font-family:CMR8;-inkscape-font-specification:CMR8;writing-mode:lr-tb;fill:#000000;fill-opacity:1;fill-rule:nonzero;stroke:none"
           transform="matrix(1,0,0,-1,91.4602,125.79992)"><tspan
             id="tspan24"
             y="0"
             x="0 4.1999993 8.6400003 15.960156 25.440235 27.840233 32.280075 35.520081 38.880085 43.319927 47.999928 52.679916 56.399925 59.639923 63.83992 67.199921 69.599922 73.799919 79.080078 83.280075 87.720085 95.040245 104.4004 106.80039 111.24023 114.48023 118.20025 121.56023 128.64024 132.36024 137.04024 139.44025 143.64024 148.92033 153.12033 157.56033 164.88051 174.3606 178.32074 182.2809 186.48091 191.1609 194.88091 199.0809 203.76091 207.96091 213.36092 217.56091 222.00092 229.32109 238.80118 243.481 246.84097 250.80098 255.00099 258.72098 262.44098 265.681 272.88101 277.561 282.241 286.44101 291.72086 296.40085 303.00092 306.72092 310.92093 314.28091 317.6409 321.3609 324.72092">1xx=introductorio,2xx=intermedio,3xx=avanzado,4xx=proyectofnaldecarrera</tspan></text>
<text
           id="text30"
           style="font-variant:normal;font-weight:normal;font-size:9.96263981px;font-family:CMR10;-inkscape-font-specification:CMR10;writing-mode:lr-tb;fill:#000000;fill-opacity:1;fill-rule:nonzero;stroke:none"
           transform="matrix(1,0,0,-1,91.4602,109.16832)"><tspan
             id="tspan28"
             y="0"
             x="0 6.3601584 10.800159 19.080154 27.360155 31.200159 35.160156 39.600159 44.640144 50.160156 55.680157 61.200157 69.480087 73.919937 75.119934 77.879585 82.919586 85.679237 89.519241 94.559242 99.599228 102.35888 106.79887 110.63887 114.59889 119.63888">Tema(segundod´ıgito/letra)</tspan></text>
<text
           id="text50"
           style="font-variant:normal;font-weight:normal;font-size:7.97010994px;font-family:CMR8;-inkscape-font-specification:CMR8;writing-mode:lr-tb;fill:#000000;fill-opacity:1;fill-rule:nonzero;stroke:none"
           transform="matrix(1,0,0,-1,91.4602,99.68824)"><tspan
             id="tspan32"
             y="0"
             x="0 7.08008 16.440233 22.800224 25.200224 29.400223 33.600224 36.960224 39.360222 42.600231 49.680229 53.88023 60.000381 67.320305 73.4403 77.640305 84.720299 89.400291 91.800285 95.520302 98.160301 100.5603 105.2403 109.44029 117.00037 120.24036 126.60038 131.88039 185.16058 194.04065 203.40082 209.88081 213.60081 216.96082 221.16081 224.5208 227.8808 232.0808 234.4808 236.88081 243.84065 249.84065 254.04065 257.40067 261.60065 266.28064 270.48062 276.7207 280.4407 288.00079 293.7608 296.16101 300.36099 303.60098 307.80099 310.44098 314.64096 318.00098 325.08093 332.1611 335.40112 341.1611 347.1611 353.64108">1=AlgoritmosyComplejidad(AL)B=DesarrolloBasadosenPlataforma(PBD)</tspan><tspan
             id="tspan34"
             y="9.4800797"
             x="0 7.08008 16.440233 22.800224 26.160227 30.600233 35.280235 37.680233 40.920231 44.64024 48.360237 51.600243 56.280231 59.640247 66.840248 74.160172 80.76017 84.120171 88.320168 92.520164 97.200172 99.600166 103.32017 107.52016 111.24017 113.64017 113.64024 117.84024 125.4004 128.6404 135.00041 141.2404 185.16057 194.16055 203.52072 209.6407 212.04071 215.76071 220.4407 224.16071 226.56071 233.64064 239.76064 243.96063 251.04063 255.72064 260.40063 263.64062 267.84064 271.56064 273.96063 278.16101 282.841 287.04102 292.44101 295.681 301.80103 308.16101">2=ArquitecturayOrganizaci´on(AR)C=CienciaComputacional(CN)</tspan><tspan
             id="tspan36"
             y="18.95977"
             x="0 7.08008 16.440233 22.680233 26.40023 31.080233 34.800228 41.040226 48.360153 54.480148 58.680149 65.520302 70.200302 74.880295 77.280296 81.000305 85.200287 88.920303 91.320297 95.520294 100.20029 103.9203 110.2803 113.52029 119.8803 126.00029 185.16034 194.52049 203.88066 209.64067 213.00066 216.24068 219.60065 224.28065 228.00064 231.24065 235.92064 239.28064 246.36072 252.84071 255.24074 258.60071 262.32074 265.68073 269.4007 272.64072 276.84073 283.08066 286.32065 292.80063 297.48065">3=RedesyComunicaciones(NC)D=EstructuraDiscretas(DS)</tspan><tspan
             id="tspan38"
             y="28.319929"
             x="0 7.08008 16.440233 21.720242 25.440239 30.120228 34.320229 39.000229 43.680073 46.32008 50.040077 56.400074 61.080074 67.680145 73.440147 76.800148 81.000145 85.20015 88.56015 92.760147 99.840149 104.04015 107.76015 110.16014 110.16022 114.36021 121.92036 125.16036 130.92036 136.20038 185.1602 193.5602 202.92036 207.72037 212.40036 217.08037 221.76035 225.96034 233.04036 236.76036 241.20044 244.44043 248.64044 255.12036 259.80035 263.52036 268.68054 275.16052 278.88052 282.24054 286.44052 289.79999 293.16 297.36002 299.76001 302.16003 309.11984 313.79987 320.39993 325.07993 329.27994 331.91995 334.91986 340.79993 344.99994 348.35995 354.96008 358.20007 362.88013 369.36011 374.88013">4=LenguajesdeProgramaci´on(PL)F=FundamentosdelDesarrollodeSoftware(SDF)</tspan><tspan
             id="tspan40"
             y="37.800011"
             x="0 7.08008 16.440233 23.040236 26.400236 26.400396 30.600395 35.280399 39.000397 43.200394 49.56039 56.760395 63.120388 65.520386 68.880386 73.560387 77.760384 80.160385 82.560379 86.28038 90.480377 94.200386 96.600388 96.600227 100.80022 108.36037 111.60039 118.20038 124.56039 185.1604 194.40025 203.76042 206.76044 211.20027 214.44026 218.16029 221.52026 225.72026 229.44026 233.16028 235.56029 235.56044 239.76044 247.56044 253.92046 258.60043 265.68045 269.88043 274.56046 281.64053 287.7605 291.961 299.04102 303.72101 308.401 311.64102 315.841 320.52103 324.72101 331.08105 334.32104 340.68106 346.80106 349.80106">5=Gr´afcosyVisualizaci´on(GV)H=Interacci´onHumanoComputador(HCI)</tspan><tspan
             id="tspan42"
             y="47.28009"
             x="0 7.08008 16.440233 21.120234 23.520233 26.880228 30.120224 33.840233 40.920223 45.12022 51.360149 54.360149 58.799992 62.039997 65.759995 68.159996 70.55999 74.759995 78.479988 82.919914 86.15992 89.879921 96.359764 99.59977 102.59977 107.27976 185.15977 191.03984 200.51993 206.87994 210.23993 213.95993 218.15993 222.83994 226.19994 230.39993 237.47992 239.87993 243.59996 248.03987 251.27986 258.3598 265.67972 270.35971 274.07971 278.27972 282.95972 286.3197 288.7197 293.39972 297.5997 305.16 309.84 316.44006 318.84009 325.92017 328.92017 333.60016 336.2402 340.44019 343.80017 350.88019 355.0802 358.80014 361.20013 361.20026 365.40024 372.96042 376.20041 379.20041 385.56042 390.24042">6=SistemasInteligentes(IS)I=AseguramientoySeguridaddelaInformaci´on(IAS)</tspan><tspan
             id="tspan44"
             y="56.759781"
             x="0 7.08008 16.440233 23.040236 26.760233 30.12023 33.360237 35.760235 35.760162 39.960163 47.64016 52.320164 58.920235 61.920235 66.600235 69.240234 73.440231 76.800232 83.880234 88.080231 91.800232 94.200226 94.200317 98.400314 105.96046 109.20048 112.20048 120.00045 185.16048 193.80032 203.16049 209.28049 213.48048 220.5605 225.24049 229.92047 233.16049 237.36049 241.08049 243.4805 243.48042 247.68042 255.36043 260.88034 265.08035 268.44034 272.64035 275.04034 278.76035 281.16037 288.24051 295.561 302.04099 304.44101 307.80099 311.04102 314.401 316.80099 321.48105 325.2009 326.16104 328.56107 333.24106 340.20093 343.44092 349.2009 355.68088">7=Gesti´ondeInformaci´on(IM)P=Computaci´onParalelayDistribu´ıda(PD)</tspan><tspan
             id="tspan46"
             y="66.239861"
             x="0 7.08008 16.440233 22.800224 26.160221 30.840223 35.280064 38.520073 42.72007 48.96014 53.640141 58.080059 61.800056 64.200058 68.400055 70.800049 74.520065 80.760132 88.080055 93.840057 97.200058 97.199982 101.39999 105.11998 108.35999 110.75999 114.47999 121.67999 127.43999 130.79997 134.99997 137.63997 141.35997 144.71996 147.11996 151.31996 155.99997 160.19997 165.36006 168.60007 173.28006 179.04007 185.16006 192.72023 202.0804 206.76039 209.1604 212.52039 215.76041 219.48041 226.56042 230.75999 236.99992 243.59993 248.51985 252.23984 255.59985 259.79984 263.03986 265.43985 269.63977 273.83978 280.07962 283.31961 289.91962 294.59964">8=AsuntosSocialesyPr´acticaProfesional(SP)S=SistemasOperativos(OS)</tspan><tspan
             id="tspan48"
             y="75.71994"
             x="0 7.08008 16.440233 19.440235 24.120237 28.320236 32.040234 36.720222 39.12022 42.840229 45.240238 46.200397 48.600395 52.800396 57.480396 64.200394 68.880394 73.080399 75.72039 78.720322 84.600403 88.8004 92.1604 98.760559 102.00057 106.68056 112.44056 185.16055 194.40041 203.76057 208.56058 213.24057 217.92058 222.60056 226.80055 233.88057 237.60057 242.04065 245.28064 249.48064 255.96057 260.64056 267.24066 271.92065 274.32065 277.68063 280.92065 284.64066 291.72067 295.92068 302.16058 305.401 310.08099 315.60098">9=Ingenier´ıadeSoftware(SE)U=FundamentosdeSistemas(SF)</tspan></text>
<text
           id="text54"
           style="font-variant:normal;font-weight:normal;font-size:9.96263981px;font-family:CMR10;-inkscape-font-specification:CMR10;writing-mode:lr-tb;fill:#000000;fill-opacity:1;fill-rule:nonzero;stroke:none"
           transform="matrix(1,0,0,-1,12.5002,7.721)"><tspan
             id="tspan52"
             y="0"
             x="0 3.5999997 9.1199999 13.559999 18.839844 22.679844 25.439495 30.959494 35.39949 40.439495 45.959492 50.999496 58.079346 63.359425 68.879425 76.919579 77.279739 81.719742 85.679741 88.439392 92.879395 101.03954 105.47955 114.35947 118.79946 124.79896 124.79896 129.83896 133.79895 138.23895">Identifcadornum´ericoenel´area</tspan></text>
<text
           id="text58"
           style="font-variant:normal;font-weight:normal;font-size:17.2154007px;font-family:CMR17;-inkscape-font-specification:CMR17;writing-mode:lr-tb;fill:#000000;fill-opacity:1;fill-rule:nonzero;stroke:none"
           transform="matrix(1,0,0,-1,7.58028,62.539)"><tspan
             id="tspan56"
             y="0"
             x="0 16.680035 30.719849 43.799904 56.87994 69.959976">CS2701</tspan></text>
</g><path
         id="path60"
         style="fill:#000000;fill-opacity:1;fill-rule:nonzero;stroke:none"
         d="m 413.961,812.469 15.441,-43.239 15.442,43.239 -15.442,-17.297" /><path
         id="path62"
         style="fill:none;stroke:#000000;stroke-width:7.97010994;stroke-linecap:butt;stroke-linejoin:miter;stroke-miterlimit:10;stroke-dasharray:none;stroke-opacity:1"
         d="m 854.602,1364.51 h -425.2 V 795.172" /><path
         id="path64"
         style="fill:#000000;fill-opacity:1;fill-rule:nonzero;stroke:none"
         d="m 555.695,812.469 15.442,-43.239 15.441,43.239 -15.441,-17.297" /><path
         id="path66"
         style="fill:none;stroke:#000000;stroke-width:7.97010994;stroke-linecap:butt;stroke-linejoin:miter;stroke-miterlimit:10;stroke-dasharray:none;stroke-opacity:1"
         d="M 854.602,1109.39 H 571.137 V 795.172" /><path
         id="path68"
         style="fill:#000000;fill-opacity:1;fill-rule:nonzero;stroke:none"
         d="m 827.523,570.086 -15.441,43.238 -15.441,-43.238 15.441,17.297" /><path
         id="path70"
         style="fill:none;stroke:#000000;stroke-width:7.97010994;stroke-linecap:butt;stroke-linejoin:miter;stroke-miterlimit:10;stroke-dasharray:none;stroke-opacity:1"
         d="M 812.082,202.301 V 587.383" /></g></g></svg>